<svg width="30" height="30" viewBox="0 0 30 30" fill="none" xmlns="http://www.w3.org/2000/svg">
<path d="M22 9H20.414L19.414 8C18.835 7.421 17.819 7 17 7H13C12.181 7 11.165 7.421 10.586 8L9.586 9H8C6.346 9 5 10.346 5 12V20C5 21.654 6.346 23 8 23H22C23.654 23 25 21.654 25 20V12C25 10.346 23.654 9 22 9ZM15 19C14.0716 18.9999 13.1813 18.6309 12.5249 17.9744C11.8685 17.3178 11.4999 16.4274 11.5 15.499C11.5001 14.5706 11.8691 13.6803 12.5256 13.0239C13.1822 12.3675 14.0726 11.9989 15.001 11.999C15.9294 11.9991 16.8197 12.3681 17.4761 13.0246C18.1325 13.6812 18.5011 14.5716 18.501 15.5C18.5009 16.4284 18.1319 17.3187 17.4754 17.9751C16.8188 18.6315 15.9284 19.0001 15 19ZM21 14.299C20.8293 14.299 20.6602 14.2654 20.5025 14.2C20.3448 14.1347 20.2015 14.039 20.0808 13.9182C19.96 13.7975 19.8643 13.6542 19.799 13.4965C19.7336 13.3388 19.7 13.1697 19.7 12.999C19.7 12.8283 19.7336 12.6592 19.799 12.5015C19.8643 12.3438 19.96 12.2005 20.0808 12.0798C20.2015 11.959 20.3448 11.8633 20.5025 11.798C20.6602 11.7326 20.8293 11.699 21 11.699C21.3448 11.699 21.6754 11.836 21.9192 12.0798C22.163 12.3236 22.3 12.6542 22.3 12.999C22.3 13.3438 22.163 13.6744 21.9192 13.9182C21.6754 14.162 21.3448 14.299 21 14.299Z" fill="white"/>
</svg>
